<svg xmlns:xlink="http://www.w3.org/1999/xlink" version="1.1" class="highcharts-root" style="font-family: Helvetica, Arial, sans-serif; font-size: 1rem;" xmlns="http://www.w3.org/2000/svg" width="600" height="400" viewBox="0 0 600 400" aria-label="Interactive chart" aria-hidden="false"><desc aria-hidden="true">Created with Highcharts 11.3.0</desc><defs aria-hidden="true"><filter id="highcharts-drop-shadow-1"><feDropShadow dx="1" dy="1" flood-color="#000000" flood-opacity="0.75" stdDeviation="2.5"></feDropShadow></filter><clipPath id="highcharts-6w0edqt-65-"><rect x="0" y="0" width="513" height="253" fill="none"></rect></clipPath></defs><rect fill="#ffffff" class="highcharts-background" filter="none" x="0" y="0" width="600" height="400" rx="0" ry="0" aria-hidden="true"></rect><rect fill="none" class="highcharts-plot-background" x="77" y="61" width="513" height="253" filter="none" aria-hidden="true"></rect><g class="highcharts-grid highcharts-xaxis-grid" data-z-index="1" aria-hidden="true"><path fill="none" stroke="#e6e6e6" stroke-width="0" stroke-dasharray="none" data-z-index="1" class="highcharts-grid-line" d="M 162.5 61 L 162.5 314" opacity="1"></path><path fill="none" stroke="#e6e6e6" stroke-width="0" stroke-dasharray="none" data-z-index="1" class="highcharts-grid-line" d="M 247.5 61 L 247.5 314" opacity="1"></path><path fill="none" stroke="#e6e6e6" stroke-width="0" stroke-dasharray="none" data-z-index="1" class="highcharts-grid-line" d="M 333.5 61 L 333.5 314" opacity="1"></path><path fill="none" stroke="#e6e6e6" stroke-width="0" stroke-dasharray="none" data-z-index="1" class="highcharts-grid-line" d="M 418.5 61 L 418.5 314" opacity="1"></path><path fill="none" stroke="#e6e6e6" stroke-width="0" stroke-dasharray="none" data-z-index="1" class="highcharts-grid-line" d="M 504.5 61 L 504.5 314" opacity="1"></path><path fill="none" stroke="#e6e6e6" stroke-width="0" stroke-dasharray="none" data-z-index="1" class="highcharts-grid-line" d="M 589.5 61 L 589.5 314" opacity="1"></path><path fill="none" stroke="#e6e6e6" stroke-width="0" stroke-dasharray="none" data-z-index="1" class="highcharts-grid-line" d="M 76.5 61 L 76.5 314" opacity="1"></path></g><g class="highcharts-grid highcharts-yaxis-grid" data-z-index="1" aria-hidden="true"><path fill="none" stroke="#e6e6e6" stroke-width="1" stroke-dasharray="none" data-z-index="1" class="highcharts-grid-line" d="M 77 314.5 L 590 314.5" opacity="1"></path><path fill="none" stroke="#e6e6e6" stroke-width="1" stroke-dasharray="none" data-z-index="1" class="highcharts-grid-line" d="M 77 263.5 L 590 263.5" opacity="1"></path><path fill="none" stroke="#e6e6e6" stroke-width="1" stroke-dasharray="none" data-z-index="1" class="highcharts-grid-line" d="M 77 213.5 L 590 213.5" opacity="1"></path><path fill="none" stroke="#e6e6e6" stroke-width="1" stroke-dasharray="none" data-z-index="1" class="highcharts-grid-line" d="M 77 162.5 L 590 162.5" opacity="1"></path><path fill="none" stroke="#e6e6e6" stroke-width="1" stroke-dasharray="none" data-z-index="1" class="highcharts-grid-line" d="M 77 112.5 L 590 112.5" opacity="1"></path><path fill="none" stroke="#e6e6e6" stroke-width="1" stroke-dasharray="none" data-z-index="1" class="highcharts-grid-line" d="M 77 60.5 L 590 60.5" opacity="1"></path></g><rect fill="none" class="highcharts-plot-border" data-z-index="1" stroke="#cccccc" stroke-width="0" x="77" y="61" width="513" height="253" aria-hidden="true"></rect><g class="highcharts-axis highcharts-xaxis" data-z-index="2" aria-hidden="true"><path fill="none" class="highcharts-axis-line" stroke="#333333" stroke-width="1" data-z-index="7" d="M 77 314.5 L 590 314.5"></path></g><g class="highcharts-axis highcharts-yaxis" data-z-index="2" aria-hidden="true"><text x="23.443750381469727" data-z-index="7" text-anchor="middle" transform="translate(0,0) rotate(270 23.443750381469727 187.5)" class="highcharts-axis-title" style="color: rgb(102, 102, 102); font-size: 0.8em; fill: rgb(102, 102, 102);" y="187.5">1000 metric tons (MT)</text><path fill="none" class="highcharts-axis-line" stroke="#333333" stroke-width="0" data-z-index="7" d="M 77 61 L 77 314"></path></g><g class="highcharts-series-group" data-z-index="3" filter="none" aria-hidden="false"><g class="highcharts-series highcharts-series-0 highcharts-column-series highcharts-color-0" data-z-index="0.1" opacity="1" transform="translate(77,61) scale(1 1)" clip-path="url(#highcharts-6w0edqt-65-)" aria-hidden="false" role="region" tabindex="-1" aria-label="Corn, bar series 1 of 2 with 6 bars." style="outline: none;"><path fill="#2caffe" d="M 25 48 L 35 48 A 3 3 0 0 1 38 51 L 38 254 A 0 0 0 0 1 38 254 L 22 254 A 0 0 0 0 1 22 254 L 22 51 A 3 3 0 0 1 25 48 Z" stroke="#ffffff" stroke-width="0" opacity="1" filter="none" class="highcharts-point highcharts-color-0" tabindex="-1" role="img" aria-label="USA, 406,292 (1000 MT). Corn." style="outline: none;"></path><path fill="#2caffe" d="M 111 122 L 121 122 A 3 3 0 0 1 124 125 L 124 254 A 0 0 0 0 1 124 254 L 108 254 A 0 0 0 0 1 108 254 L 108 125 A 3 3 0 0 1 111 122 Z" stroke="#ffffff" stroke-width="0" opacity="1" filter="none" class="highcharts-point highcharts-color-0" tabindex="-1" role="img" aria-label="China, 260,000 (1000 MT). Corn." style="outline: none;"></path><path fill="#2caffe" d="M 196 200 L 206 200 A 3 3 0 0 1 209 203 L 209 254 A 0 0 0 0 1 209 254 L 193 254 A 0 0 0 0 1 193 254 L 193 203 A 3 3 0 0 1 196 200 Z" stroke="#ffffff" stroke-width="0" opacity="1" filter="none" class="highcharts-point highcharts-color-0" tabindex="-1" role="img" aria-label="Brazil, 107,000 (1000 MT). Corn." style="outline: none;"></path><path fill="#2caffe" d="M 282 219 L 292 219 A 3 3 0 0 1 295 222 L 295 254 A 0 0 0 0 1 295 254 L 279 254 A 0 0 0 0 1 279 254 L 279 222 A 3 3 0 0 1 282 219 Z" stroke="#ffffff" stroke-width="0" opacity="1" filter="none" class="highcharts-point highcharts-color-0" tabindex="-1" role="img" aria-label="EU, 68,300 (1000 MT). Corn." style="outline: none;"></path><path fill="#2caffe" d="M 367 240 L 377 240 A 3 3 0 0 1 380 243 L 380 254 A 0 0 0 0 1 380 254 L 364 254 A 0 0 0 0 1 364 254 L 364 243 A 3 3 0 0 1 367 240 Z" stroke="#ffffff" stroke-width="0" opacity="1" filter="none" class="highcharts-point highcharts-color-0" tabindex="-1" role="img" aria-label="India, 27,500 (1000 MT). Corn." style="outline: none;"></path><path fill="#2caffe" d="M 453 247 L 463 247 A 3 3 0 0 1 466 250 L 466 254 A 0 0 0 0 1 466 254 L 450 254 A 0 0 0 0 1 450 254 L 450 250 A 3 3 0 0 1 453 247 Z" stroke="#ffffff" stroke-width="0" opacity="1" filter="none" class="highcharts-point highcharts-color-0" tabindex="-1" role="img" aria-label="Russia, 14,500 (1000 MT). Corn." style="outline: none;"></path></g><g class="highcharts-markers highcharts-series-0 highcharts-column-series highcharts-color-0" data-z-index="0.1" opacity="1" transform="translate(77,61) scale(1 1)" clip-path="none" aria-hidden="true"></g><g class="highcharts-series highcharts-series-1 highcharts-column-series highcharts-color-1" data-z-index="0.1" opacity="1" transform="translate(77,61) scale(1 1)" clip-path="url(#highcharts-6w0edqt-65-)" aria-hidden="false" role="region" tabindex="-1" aria-label="Wheat, bar series 2 of 2 with 6 bars." style="outline: none;"><path fill="#544fc5" d="M 51 228 L 61 228 A 3 3 0 0 1 64 231 L 64 254 A 0 0 0 0 1 64 254 L 48 254 A 0 0 0 0 1 48 254 L 48 231 A 3 3 0 0 1 51 228 Z" stroke="#ffffff" stroke-width="0" opacity="1" filter="none" class="highcharts-point highcharts-color-1" tabindex="-1" role="img" aria-label="USA, 51,086 (1000 MT). Wheat." style="outline: none;"></path><path fill="#544fc5" d="M 136 185 L 146 185 A 3 3 0 0 1 149 188 L 149 254 A 0 0 0 0 1 149 254 L 133 254 A 0 0 0 0 1 133 254 L 133 188 A 3 3 0 0 1 136 185 Z" stroke="#ffffff" stroke-width="0" opacity="1" filter="none" class="highcharts-point highcharts-color-1" tabindex="-1" role="img" aria-label="China, 136,000 (1000 MT). Wheat." style="outline: none;"></path><path fill="#544fc5" d="M 222 251 L 232 251 A 3 3 0 0 1 235 254 L 235 254 A 0 0 0 0 1 235 254 L 219 254 A 0 0 0 0 1 219 254 L 219 254 A 3 3 0 0 1 222 251 Z" stroke="#ffffff" stroke-width="0" opacity="1" filter="none" class="highcharts-point highcharts-color-1" tabindex="-1" role="img" aria-label="Brazil, 5,500 (1000 MT). Wheat." style="outline: none;"></path><path fill="#544fc5" d="M 307 183 L 317 183 A 3 3 0 0 1 320 186 L 320 254 A 0 0 0 0 1 320 254 L 304 254 A 0 0 0 0 1 304 254 L 304 186 A 3 3 0 0 1 307 183 Z" stroke="#ffffff" stroke-width="0" opacity="1" filter="none" class="highcharts-point highcharts-color-1" tabindex="-1" role="img" aria-label="EU, 141,000 (1000 MT). Wheat." style="outline: none;"></path><path fill="#544fc5" d="M 393 200 L 403 200 A 3 3 0 0 1 406 203 L 406 254 A 0 0 0 0 1 406 254 L 390 254 A 0 0 0 0 1 390 254 L 390 203 A 3 3 0 0 1 393 200 Z" stroke="#ffffff" stroke-width="0" opacity="1" filter="none" class="highcharts-point highcharts-color-1" tabindex="-1" role="img" aria-label="India, 107,180 (1000 MT). Wheat." style="outline: none;"></path><path fill="#544fc5" d="M 478 215 L 488 215 A 3 3 0 0 1 491 218 L 491 254 A 0 0 0 0 1 491 254 L 475 254 A 0 0 0 0 1 475 254 L 475 218 A 3 3 0 0 1 478 215 Z" stroke="#ffffff" stroke-width="0" opacity="1" filter="none" class="highcharts-point highcharts-color-1" tabindex="-1" role="img" aria-label="Russia, 77,000 (1000 MT). Wheat." style="outline: none;"></path></g><g class="highcharts-markers highcharts-series-1 highcharts-column-series highcharts-color-1" data-z-index="0.1" opacity="1" transform="translate(77,61) scale(1 1)" clip-path="none" aria-hidden="true"></g></g><text x="10" text-anchor="start" class="highcharts-title" data-z-index="4" style="font-size: 1.2em; color: rgb(51, 51, 51); font-weight: bold; fill: rgb(51, 51, 51);" y="25" aria-hidden="true">Corn vs wheat estimated production for 2020</text><text x="10" text-anchor="start" class="highcharts-subtitle" data-z-index="4" style="color: rgb(102, 102, 102); font-size: 0.8em; fill: rgb(102, 102, 102);" y="46" aria-hidden="true">Source: <a target="_blank" xlink:href="https://www.indexmundi.com/agriculture/?commodity=corn"><tspan>indexmundi</tspan></a></text><text x="10" text-anchor="start" class="highcharts-caption" data-z-index="4" style="color: rgb(102, 102, 102); font-size: 0.8em; fill: rgb(102, 102, 102);" y="397" aria-hidden="true"></text><g class="highcharts-legend highcharts-no-tooltip" data-z-index="7" transform="translate(228,355)" aria-hidden="true"><rect fill="none" class="highcharts-legend-box" rx="0" ry="0" stroke="#999999" stroke-width="0" filter="none" x="0" y="0" width="144" height="30"></rect><g data-z-index="1"><g><g class="highcharts-legend-item highcharts-column-series highcharts-color-0 highcharts-series-0" data-z-index="1" transform="translate(8,3)"><text x="21" text-anchor="start" data-z-index="2" style="color: rgb(51, 51, 51); cursor: pointer; font-size: 0.8em; text-decoration: none; fill: rgb(51, 51, 51);" y="17">Corn</text><rect x="2" y="6" rx="6" ry="6" width="12" height="12" fill="#2caffe" class="highcharts-point" data-z-index="3"></rect></g><g class="highcharts-legend-item highcharts-column-series highcharts-color-1 highcharts-series-1" data-z-index="1" transform="translate(76.82500076293945,3)"><text x="21" y="17" text-anchor="start" data-z-index="2" style="color: rgb(51, 51, 51); cursor: pointer; font-size: 0.8em; text-decoration: none; fill: rgb(51, 51, 51);">Wheat</text><rect x="2" y="6" rx="6" ry="6" width="12" height="12" fill="#544fc5" class="highcharts-point" data-z-index="3"></rect></g></g></g></g><g class="highcharts-axis-labels highcharts-xaxis-labels" data-z-index="7" aria-hidden="true"><text x="119.75" style="color: rgb(51, 51, 51); cursor: default; font-size: 0.8em; fill: rgb(51, 51, 51);" text-anchor="middle" transform="translate(0,0)" y="341" opacity="1">USA</text><text x="205.25" style="color: rgb(51, 51, 51); cursor: default; font-size: 0.8em; fill: rgb(51, 51, 51);" text-anchor="middle" transform="translate(0,0)" y="341" opacity="1">China</text><text x="290.75" style="color: rgb(51, 51, 51); cursor: default; font-size: 0.8em; fill: rgb(51, 51, 51);" text-anchor="middle" transform="translate(0,0)" y="341" opacity="1">Brazil</text><text x="376.25" style="color: rgb(51, 51, 51); cursor: default; font-size: 0.8em; fill: rgb(51, 51, 51);" text-anchor="middle" transform="translate(0,0)" y="341" opacity="1">EU</text><text x="461.75" style="color: rgb(51, 51, 51); cursor: default; font-size: 0.8em; fill: rgb(51, 51, 51);" text-anchor="middle" transform="translate(0,0)" y="341" opacity="1">India</text><text x="547.25" style="color: rgb(51, 51, 51); cursor: default; font-size: 0.8em; fill: rgb(51, 51, 51);" text-anchor="middle" transform="translate(0,0)" y="341" opacity="1">Russia</text></g><g class="highcharts-axis-labels highcharts-yaxis-labels" data-z-index="7" aria-hidden="true"><text x="62" style="color: rgb(51, 51, 51); cursor: default; font-size: 0.8em; fill: rgb(51, 51, 51);" text-anchor="end" transform="translate(0,0)" y="319" opacity="1">0</text><text x="62" style="color: rgb(51, 51, 51); cursor: default; font-size: 0.8em; fill: rgb(51, 51, 51);" text-anchor="end" transform="translate(0,0)" y="269" opacity="1">100k</text><text x="62" style="color: rgb(51, 51, 51); cursor: default; font-size: 0.8em; fill: rgb(51, 51, 51);" text-anchor="end" transform="translate(0,0)" y="218" opacity="1">200k</text><text x="62" style="color: rgb(51, 51, 51); cursor: default; font-size: 0.8em; fill: rgb(51, 51, 51);" text-anchor="end" transform="translate(0,0)" y="167" opacity="1">300k</text><text x="62" style="color: rgb(51, 51, 51); cursor: default; font-size: 0.8em; fill: rgb(51, 51, 51);" text-anchor="end" transform="translate(0,0)" y="117" opacity="1">400k</text><text x="62" style="color: rgb(51, 51, 51); cursor: default; font-size: 0.8em; fill: rgb(51, 51, 51);" text-anchor="end" transform="translate(0,0)" y="66" opacity="1">500k</text></g><text x="590" class="highcharts-credits" text-anchor="end" data-z-index="8" y="395" style="cursor: pointer; color: rgb(153, 153, 153); font-size: 0.6em; fill: rgb(153, 153, 153);" aria-label="Chart credits: Highcharts.com" aria-hidden="false">Highcharts.com</text></svg>